<svg width="429" height="365" viewBox="0 0 429 365" fill="none" xmlns="http://www.w3.org/2000/svg">
<path d="M115.975 172.625L140.903 74.388L239.14 49.46L312.525 122.844L287.596 221.081L189.36 246.009L115.975 172.625Z" stroke="black" stroke-width="4"/>
<path d="M324.009 133.844L299.081 232.081L200.844 257.009L127.46 183.625L152.388 85.3881L250.625 60.46L324.009 133.844Z" stroke="black" stroke-width="4"/>
<path d="M158.812 148H157.812V149H158.812V148ZM158.812 141.984L158.626 141.002L157.812 141.156V141.984H158.812ZM164.984 140.813L165.171 141.795L165.984 141.641V140.813H164.984ZM164.984 98.3516H165.984V97.5236L165.171 97.3691L164.984 98.3516ZM158.812 97.1797H157.812V98.0077L158.626 98.1622L158.812 97.1797ZM158.812 91.125V90.125H157.812V91.125H158.812ZM179.086 91.125L180.013 90.7492L179.76 90.125H179.086V91.125ZM195.766 132.258L194.839 132.634L195.092 133.258H195.766V132.258ZM196 132.258V133.258H196.681L196.931 132.624L196 132.258ZM212.172 91.125V90.125H211.491L211.241 90.7591L212.172 91.125ZM232.68 91.125H233.68V90.125H232.68V91.125ZM232.68 97.1797L232.865 98.1624L233.68 98.0087V97.1797H232.68ZM226.469 98.3516L226.283 97.3689L225.469 97.5226V98.3516H226.469ZM226.469 140.813H225.469V141.641L226.283 141.795L226.469 140.813ZM232.68 141.984H233.68V141.155L232.865 141.002L232.68 141.984ZM232.68 148V149H233.68V148H232.68ZM210.453 148H209.453V149H210.453V148ZM210.453 141.984L210.276 141L209.453 141.148V141.984H210.453ZM216.977 140.813L217.153 141.797L217.977 141.649V140.813H216.977ZM216.977 127.57L215.977 127.567V127.57H216.977ZM217.055 102.688L218.055 102.691L218.057 101.868L217.251 101.707L217.055 102.688ZM216.859 102.648L217.055 101.668L216.24 101.505L215.931 102.277L216.859 102.648ZM199.242 146.711V147.711H199.919L200.171 147.082L199.242 146.711ZM192.094 146.711L191.17 147.093L191.425 147.711H192.094V146.711ZM173.969 102.883L174.893 102.501L174.579 101.741L173.773 101.902L173.969 102.883ZM173.773 102.922L173.577 101.941L172.756 102.106L172.774 102.943L173.773 102.922ZM174.281 126.906H175.281V126.896L175.281 126.885L174.281 126.906ZM174.281 140.813H173.281V141.654L174.11 141.798L174.281 140.813ZM181.039 141.984H182.039V141.143L181.21 140.999L181.039 141.984ZM181.039 148V149H182.039V148H181.039ZM159.812 148V141.984H157.812V148H159.812ZM158.999 142.967L165.171 141.795L164.798 139.83L158.626 141.002L158.999 142.967ZM165.984 140.813V98.3516H163.984V140.813H165.984ZM165.171 97.3691L158.999 96.1973L158.626 98.1622L164.798 99.334L165.171 97.3691ZM159.812 97.1797V91.125H157.812V97.1797H159.812ZM158.812 92.125H179.086V90.125H158.812V92.125ZM178.159 91.5008L194.839 132.634L196.692 131.882L180.013 90.7492L178.159 91.5008ZM195.766 133.258H196V131.258H195.766V133.258ZM196.931 132.624L213.103 91.4909L211.241 90.7591L195.069 131.892L196.931 132.624ZM212.172 92.125H232.68V90.125H212.172V92.125ZM231.68 91.125V97.1797H233.68V91.125H231.68ZM232.494 96.197L226.283 97.3689L226.654 99.3342L232.865 98.1624L232.494 96.197ZM225.469 98.3516V140.813H227.469V98.3516H225.469ZM226.283 141.795L232.494 142.967L232.865 141.002L226.654 139.83L226.283 141.795ZM231.68 141.984V148H233.68V141.984H231.68ZM232.68 147H210.453V149H232.68V147ZM211.453 148V141.984H209.453V148H211.453ZM210.63 142.969L217.153 141.797L216.8 139.828L210.276 141L210.63 142.969ZM217.977 140.813V127.57H215.977V140.813H217.977ZM217.977 127.573L218.055 102.691L216.055 102.684L215.977 127.567L217.977 127.573ZM217.251 101.707L217.055 101.668L216.663 103.629L216.859 103.668L217.251 101.707ZM215.931 102.277L198.314 146.34L200.171 147.082L217.788 103.02L215.931 102.277ZM199.242 145.711H192.094V147.711H199.242V145.711ZM193.018 146.329L174.893 102.501L173.045 103.265L191.17 147.093L193.018 146.329ZM173.773 101.902L173.577 101.941L173.97 103.902L174.165 103.863L173.773 101.902ZM172.774 102.943L173.281 126.927L175.281 126.885L174.773 102.901L172.774 102.943ZM173.281 126.906V140.813H175.281V126.906H173.281ZM174.11 141.798L180.868 142.97L181.21 140.999L174.452 139.827L174.11 141.798ZM180.039 141.984V148H182.039V141.984H180.039ZM181.039 147H158.812V149H181.039V147Z" fill="black"/>
<path d="M255.094 213H254.094V214H255.094V213ZM255.094 206.984L254.908 206.002L254.094 206.155V206.984H255.094ZM261.305 205.812L261.49 206.795L262.305 206.641V205.812H261.305ZM261.305 163.664H262.305V162.664H261.305V163.664ZM249.859 163.664V162.664H248.966L248.866 163.552L249.859 163.664ZM249.039 170.93V171.93H249.933L250.033 171.042L249.039 170.93ZM241.617 170.93H240.617V171.93H241.617V170.93ZM241.617 156.125V155.125H240.617V156.125H241.617ZM290.875 156.125H291.875V155.125H290.875V156.125ZM290.875 170.93V171.93H291.875V170.93H290.875ZM283.453 170.93L282.46 171.047L282.564 171.93H283.453V170.93ZM282.594 163.664L283.587 163.547L283.482 162.664H282.594V163.664ZM271.148 163.664V162.664H270.148V163.664H271.148ZM271.148 205.812H270.148V206.641L270.963 206.795L271.148 205.812ZM277.359 206.984H278.359V206.155L277.545 206.002L277.359 206.984ZM277.359 213V214H278.359V213H277.359ZM256.094 213V206.984H254.094V213H256.094ZM255.279 207.967L261.49 206.795L261.119 204.83L254.908 206.002L255.279 207.967ZM262.305 205.812V163.664H260.305V205.812H262.305ZM261.305 162.664H249.859V164.664H261.305V162.664ZM248.866 163.552L248.045 170.817L250.033 171.042L250.853 163.776L248.866 163.552ZM249.039 169.93H241.617V171.93H249.039V169.93ZM242.617 170.93V156.125H240.617V170.93H242.617ZM241.617 157.125H290.875V155.125H241.617V157.125ZM289.875 156.125V170.93H291.875V156.125H289.875ZM290.875 169.93H283.453V171.93H290.875V169.93ZM284.446 170.812L283.587 163.547L281.601 163.782L282.46 171.047L284.446 170.812ZM282.594 162.664H271.148V164.664H282.594V162.664ZM270.148 163.664V205.812H272.148V163.664H270.148ZM270.963 206.795L277.174 207.967L277.545 206.002L271.334 204.83L270.963 206.795ZM276.359 206.984V213H278.359V206.984H276.359ZM277.359 212H255.094V214H277.359V212Z" fill="black"/>
<path d="M25.0625 312.624C25.0039 312.682 0.160156 333.835 26.0586 324.518C34.4375 321.53 58.168 306.471 81.0781 291.999C105.395 276.589 128.773 261.764 129.945 262.76C130.18 262.995 129.066 263.053 128.012 264.284C111.488 283.444 103.168 295.28 100.59 301.315C99.3594 304.186 99.3594 306.12 100.414 307.116C101.469 308.171 103.344 307.995 105.863 306.823C110.902 304.421 119.75 297.448 129.945 287.253C133.168 283.971 134.047 282.389 134.223 282.565C134.281 282.682 133.52 284.206 132.758 286.55C131.176 291.413 128.891 298.444 130.59 303.366C132.465 308.698 138.676 311.335 154.496 305.827C155.199 305.592 155.551 304.831 155.316 304.128C155.082 303.425 154.32 303.073 153.617 303.307C139.73 308.171 134.516 306.471 133.109 302.487C131.703 298.385 133.812 291.882 135.277 287.37C136.332 284.147 137.094 281.745 136.039 280.69C134.984 279.577 132.699 280.749 128.07 285.378C118.051 295.339 109.555 302.194 104.75 304.421C103.285 305.124 102.465 305.417 102.23 305.182C102.055 305.007 102.289 304.069 102.992 302.311C105.512 296.51 113.656 284.909 130.004 265.983C132.23 263.405 132.699 261.706 131.645 260.768C129.008 258.483 104.867 273.776 79.6719 289.772C56.8789 304.186 33.207 319.186 25.1211 322.057C12.9336 326.452 26.7617 314.616 26.8203 314.616C27.3477 314.147 27.4062 313.327 26.9375 312.741C26.4688 312.214 25.6484 312.096 25.0625 312.624Z" fill="black"/>
a<path d="M158.418 298.735C156.309 295.806 153.204 296.392 150.625 298.208C149.395 299.087 148.34 300.259 147.579 301.372C146.758 302.603 146.29 303.95 146.407 305.005C146.524 306.528 147.579 307.466 149.805 307.231C153.79 306.821 157.305 304.067 159.59 301.724C159.297 305.474 159.707 307.056 161.465 307.29C162.754 307.524 164.454 306.528 167.09 305.005C168.907 303.95 171.192 302.603 174.063 301.196C174.649 300.903 174.942 300.2 174.649 299.614C174.356 299.028 173.594 298.735 173.008 299.028C170.079 300.493 167.676 301.841 165.86 302.896C163.692 304.185 162.286 305.005 161.817 304.946C161.524 304.888 161.758 303.013 162.403 298.091C162.461 297.622 162.286 297.153 161.875 296.919C161.348 296.567 160.586 296.685 160.235 297.212C160.235 297.212 159.649 298.091 158.594 299.204C158.594 299.028 158.536 298.853 158.418 298.735ZM157.305 300.61C155.372 302.544 152.618 304.536 149.571 304.829C149.043 304.888 148.809 304.829 148.809 304.771C148.75 304.243 149.043 303.54 149.571 302.72C150.215 301.782 151.094 300.845 152.032 300.2C153.555 299.087 155.372 298.618 156.485 300.142C156.661 300.435 156.954 300.61 157.305 300.61Z" fill="black"/>
<path d="M173.85 296.395C173.791 296.454 168.401 306.414 170.041 308.231C170.744 309.051 171.623 308.817 172.678 307.879C173.674 307 175.139 305.301 176.721 303.485C177.014 303.133 182.112 298.036 182.112 298.036C180.94 303.075 180.588 307.293 182.405 308.817C184.338 310.399 188.088 308.934 194.768 302.547C195.237 302.079 195.237 301.317 194.826 300.848C194.358 300.379 193.596 300.321 193.127 300.789C187.502 306.18 184.866 307.704 183.928 306.942C182.991 306.18 183.459 302.84 184.455 298.563C184.983 296.102 184.514 294.93 183.342 294.637C181.526 294.227 178.01 298.329 174.905 301.903C173.967 302.957 173.088 304.012 172.326 304.832C173.44 302.137 175.959 297.567 175.959 297.567C176.252 296.981 176.018 296.219 175.432 295.926C174.846 295.633 174.143 295.809 173.85 296.395Z" fill="black"/>
<path d="M201.82 289.305C202.406 289.305 202.874 289.657 202.991 290.243C203.167 290.887 202.757 291.532 202.113 291.707C200.238 292.118 198.538 295.633 198.538 295.633C198.304 296.278 197.542 296.512 196.956 296.219C196.37 295.926 196.136 295.223 196.429 294.637C196.429 294.579 198.597 290.008 201.585 289.364C201.644 289.305 201.761 289.305 201.82 289.305ZM195.96 297.977C196.195 297.977 196.488 298.094 196.722 298.27C197.191 298.68 197.249 299.442 196.839 299.969C195.433 301.668 194.495 303.133 194.085 304.305C193.909 304.832 193.851 305.243 193.909 305.594C193.968 305.711 194.027 305.829 194.202 305.946C194.495 306.063 194.847 306.121 195.316 306.121C196.781 306.121 199.066 305.418 201.351 304.539C204.866 303.192 208.323 301.434 209.378 300.672C209.906 300.321 210.667 300.438 211.077 300.965C211.429 301.493 211.312 302.254 210.784 302.664C209.613 303.485 205.863 305.36 202.23 306.766C199.652 307.762 197.073 308.524 195.316 308.524C194.495 308.524 193.792 308.348 193.206 308.114C192.327 307.645 191.8 307 191.566 306.121C191.39 305.36 191.507 304.481 191.8 303.543C192.327 302.079 193.382 300.321 195.023 298.446C195.257 298.153 195.609 297.977 195.96 297.977Z" fill="black"/>
<path d="M218.886 299.44C220.527 296.979 220.996 295.221 220.761 294.05C220.41 292.409 219.004 291.882 217.187 292.233C215.898 292.467 214.316 293.171 212.968 294.167C210.566 295.983 208.75 298.678 209.804 301.374C210.39 302.897 211.562 304.479 212.793 306.061C200.605 311.335 188.593 317.839 205.82 317.428C215.664 317.253 218.593 314.967 218.535 311.862C218.476 310.339 217.597 308.698 216.484 307.057C223.046 304.421 229.55 302.135 229.609 302.077C230.254 301.842 230.546 301.198 230.312 300.553C230.136 299.909 229.433 299.616 228.789 299.85C228.73 299.85 222.168 302.194 215.078 305.124L214.785 304.772C213.671 303.249 212.5 301.725 212.031 300.495C211.445 299.03 212.734 297.331 214.375 296.1C215.429 295.339 216.66 294.753 217.597 294.577C218.066 294.518 218.418 294.46 218.418 294.577C218.535 295.104 218.125 296.217 216.894 298.092C216.484 298.62 216.66 299.382 217.187 299.792C217.714 300.143 218.476 299.967 218.886 299.44ZM216.132 311.921C216.191 313.62 213.789 314.85 205.761 315.026C198.554 315.202 205.879 311.51 214.257 307.995C215.254 309.46 216.074 310.866 216.132 311.921Z" fill="black"/>
<path d="M259.333 300.438C259.333 300.438 245.915 303.661 240.759 306.297C241.286 304.598 241.755 302.254 240.7 299.735C238.825 295.106 232.614 302.02 228.22 307.762C228.806 305.887 229.45 304.071 230.036 302.254C242.282 292.411 249.489 275.301 251.599 265.164C252.36 261.121 252.36 258.016 251.54 256.668C250.309 254.676 248.2 255.145 245.388 259.305C241.052 265.633 233.786 281.981 223.532 314.5C223.356 314.969 223.591 315.555 224.001 315.848C224.587 316.2 225.349 316.024 225.7 315.496C225.7 315.438 237.243 297.625 238.532 300.672C239.47 302.899 238.649 305.301 238.122 306.649C237.77 307.645 237.536 308.348 237.946 308.993C238.532 309.93 239.47 309.871 241.286 308.758C245.329 306.297 259.86 302.782 259.919 302.782C260.563 302.606 260.974 301.961 260.798 301.317C260.622 300.672 259.977 300.262 259.333 300.438ZM247.38 260.653C248.786 258.602 249.431 257.782 249.548 257.957C250.017 258.778 249.899 261.239 249.196 264.696C247.38 273.602 241.52 288.075 231.559 297.684C238.767 276.883 243.981 265.575 247.38 260.653Z" fill="black"/>
<path d="M377.378 266.742C395.894 258.538 358.862 260.882 322.359 264.574L323.472 261.351C323.648 260.765 323.355 260.062 322.71 259.827C322.3 259.71 321.831 259.827 321.48 260.12C321.128 260.413 318.198 262.933 316.792 265.16C307.241 266.156 297.925 267.21 289.839 268.148C282.515 267.445 273.843 268.499 264.526 271.312C263.941 271.488 263.589 272.015 263.648 272.66C263.765 273.304 264.351 273.773 264.995 273.656C265.112 273.656 275.308 272.308 289.605 270.55C290.776 270.667 291.89 270.843 293.003 271.019C298.394 272.074 302.788 274.3 305.776 277.757C308.765 281.156 310.347 285.843 310.23 291.82C310.171 292.113 310.171 292.347 310.171 292.64L300.737 320.238C300.503 320.765 300.737 321.351 301.265 321.644C301.851 321.995 302.554 321.761 302.905 321.175C309.058 310.042 312.046 300.726 312.573 293.109L321.597 266.8C354.585 262.757 378.14 264.691 376.441 264.574C375.737 264.515 375.562 265.511 375.796 266.156C376.089 266.742 376.792 267.035 377.378 266.742ZM318.96 267.093L318.843 267.386C318.843 267.269 318.843 267.21 318.784 267.093H318.96ZM316.089 267.386C316.206 267.913 316.499 268.324 317.261 268.558C317.73 268.734 318.257 268.617 318.55 268.265L312.28 286.546C311.577 282.386 309.995 278.929 307.593 276.175C304.956 273.128 301.441 270.96 297.163 269.613C303.14 268.91 309.585 268.148 316.089 267.386ZM319.605 264.867L319.78 264.749L319.722 264.867H319.605Z" fill="black"/>
<path d="M350.357 298.148C350.357 298.148 336.939 301.37 331.782 304.007C332.31 302.308 332.778 299.964 331.724 297.445C329.849 292.816 323.638 299.73 319.243 305.472C319.829 303.597 320.474 301.781 321.06 299.964C333.306 290.12 340.513 273.011 342.622 262.874C343.384 258.831 343.384 255.726 342.564 254.378C341.333 252.386 339.224 252.855 336.411 257.015C332.075 263.343 324.81 279.691 314.556 312.21C314.38 312.679 314.614 313.265 315.025 313.558C315.611 313.91 316.372 313.734 316.724 313.206C316.724 313.148 328.267 295.335 329.556 298.382C330.493 300.609 329.673 303.011 329.146 304.359C328.794 305.355 328.56 306.058 328.97 306.702C329.556 307.64 330.493 307.581 332.31 306.468C336.353 304.007 350.884 300.492 350.943 300.492C351.587 300.316 351.997 299.671 351.821 299.027C351.646 298.382 351.001 297.972 350.357 298.148ZM338.403 258.363C339.81 256.312 340.454 255.492 340.571 255.667C341.04 256.488 340.923 258.949 340.22 262.406C338.403 271.312 332.544 285.785 322.583 295.394C329.79 274.593 335.005 263.285 338.403 258.363Z" fill="black"/>
<path d="M358.295 297.209C356.186 294.279 353.08 294.865 350.502 296.681C349.272 297.56 348.217 298.732 347.455 299.845C346.635 301.076 346.166 302.424 346.284 303.478C346.401 305.002 347.455 305.939 349.682 305.705C353.666 305.295 357.182 302.541 359.467 300.197C359.174 303.947 359.584 305.529 361.342 305.763C362.631 305.998 364.33 305.002 366.967 303.478C368.784 302.424 371.069 301.076 373.94 299.67C374.526 299.377 374.819 298.674 374.526 298.088C374.233 297.502 373.471 297.209 372.885 297.502C369.955 298.966 367.553 300.314 365.737 301.369C363.569 302.658 362.162 303.478 361.694 303.42C361.401 303.361 361.635 301.486 362.28 296.564C362.338 296.095 362.162 295.627 361.752 295.392C361.225 295.041 360.463 295.158 360.112 295.685C360.112 295.685 359.526 296.564 358.471 297.677C358.471 297.502 358.412 297.326 358.295 297.209ZM357.182 299.084C355.248 301.017 352.494 303.009 349.448 303.302C348.92 303.361 348.686 303.302 348.686 303.244C348.627 302.716 348.92 302.013 349.448 301.193C350.092 300.256 350.971 299.318 351.909 298.674C353.432 297.56 355.248 297.091 356.362 298.615C356.537 298.908 356.83 299.084 357.182 299.084Z" fill="black"/>
<path d="M374.958 289.707L367.985 308.809C364.528 313.379 361.13 318.887 358.2 325.098C353.103 335.879 349.235 348.828 348.415 362.832C348.356 363.359 348.708 363.887 349.177 364.062C349.821 364.297 350.524 363.945 350.759 363.359L370.153 309.922C373.786 305.234 377.478 301.602 380.876 299.316C383.806 297.383 385.915 296.504 387.321 296.387C388.024 296.328 388.435 296.504 388.728 296.797C390.485 298.789 389.431 301.602 387.907 304.883C387.614 305.586 387.497 306.113 387.556 306.582C387.731 307.754 388.552 308.164 389.899 307.812C390.485 307.695 391.306 307.285 392.302 306.758C395.817 304.766 399.685 303.125 405.72 298.848C406.247 298.438 406.247 297.617 405.837 297.148C405.368 296.68 404.665 296.68 404.138 297.031C398.278 301.25 394.47 302.715 391.071 304.707C390.896 304.824 390.661 304.941 390.485 305C392.067 301.309 392.712 297.793 390.544 295.273C389.782 294.336 388.669 293.867 387.146 293.984C385.329 294.102 382.868 295.156 379.587 297.324C377.302 298.848 374.899 300.898 372.497 303.477L377.185 290.527C377.419 289.883 377.126 289.18 376.481 289.004C375.896 288.77 375.192 289.062 374.958 289.707ZM351.931 353.047C353.571 343.203 356.618 334.062 360.368 326.094C361.716 323.281 363.122 320.645 364.646 318.125L351.931 353.047Z" fill="black"/>
<path d="M411.783 296.445C409.674 293.516 406.569 294.102 403.99 295.918C402.76 296.797 401.705 297.969 400.944 299.082C400.123 300.312 399.654 301.66 399.772 302.715C399.889 304.238 400.944 305.176 403.17 304.941C407.154 304.531 410.67 301.777 412.955 299.434C412.662 303.184 413.072 304.766 414.83 305C416.119 305.234 417.819 304.238 420.455 302.715C422.272 301.66 424.557 300.312 427.428 298.906C428.014 298.613 428.307 297.91 428.014 297.324C427.721 296.738 426.959 296.445 426.373 296.738C423.444 298.203 421.041 299.551 419.225 300.605C417.057 301.895 415.651 302.715 415.182 302.656C414.889 302.598 415.123 300.723 415.768 295.801C415.826 295.332 415.651 294.863 415.24 294.629C414.713 294.277 413.951 294.395 413.6 294.922C413.6 294.922 413.014 295.801 411.959 296.914C411.959 296.738 411.901 296.562 411.783 296.445ZM410.67 298.32C408.736 300.254 405.983 302.246 402.936 302.539C402.408 302.598 402.174 302.539 402.174 302.48C402.115 301.953 402.408 301.25 402.936 300.43C403.58 299.492 404.459 298.555 405.397 297.91C406.92 296.797 408.736 296.328 409.85 297.852C410.026 298.145 410.319 298.32 410.67 298.32Z" fill="black"/>
</svg>
